<svg width="3367" height="704" viewBox="0 0 3367 704" fill="none" xmlns="http://www.w3.org/2000/svg">
<path d="M1068.73 404.041V545H1015.48V152.195H1148.92C1204.47 152.195 1244.15 161.801 1267.95 181.013C1292.18 199.808 1304.29 231.132 1304.29 274.986C1304.29 309.233 1296.56 336.59 1281.11 357.055C1266.07 377.103 1243.1 390.676 1212.2 397.777L1314.94 545H1251.04L1155.81 404.041H1068.73ZM1250.41 274.986C1250.41 248.256 1242.68 229.252 1227.23 217.976C1211.78 206.281 1185.67 200.434 1148.92 200.434H1068.73V357.055H1148.92C1184.84 357.055 1210.73 350.581 1226.6 337.634C1242.48 324.687 1250.41 303.804 1250.41 274.986Z" fill="#FF3B3D"/>
<path d="M1638.89 494.882V545H1378.28V152.195H1633.26V200.434H1431.53V320.719H1610.08V367.705H1431.53V494.882H1638.89Z" fill="#FF3B3D"/>
<path d="M1820.22 545H1706.2V152.195H1820.22C1860.32 152.195 1892.06 155.536 1915.45 162.218C1939.26 168.901 1958.26 179.551 1972.46 194.169C1986.66 208.787 1996.89 228.626 2003.16 253.685C2009.84 278.327 2013.18 309.86 2013.18 348.284C2013.18 416.362 1997.94 466.272 1967.45 498.014C1936.96 529.338 1887.88 545 1820.22 545ZM1932.36 232.385C1922.76 221.108 1909.39 212.964 1892.27 207.952C1875.14 202.94 1851.13 200.434 1820.22 200.434H1759.45V494.882H1820.22C1872.01 494.882 1907.93 483.814 1927.98 461.678C1948.44 439.542 1958.68 401.744 1958.68 348.284C1958.68 318.631 1956.59 294.615 1952.41 276.239C1948.23 257.862 1941.55 243.244 1932.36 232.385Z" fill="#FF3B3D"/>
<path d="M2246.45 545H2193.2V152.195H2246.45V321.345H2451.93V152.195H2505.19V545H2451.93V370.211H2246.45V545Z" fill="#FF3B3D"/>
<path d="M2648.4 152.195V545H2595.15V152.195H2648.4Z" fill="#FF3B3D"/>
<path d="M2845.44 545L2698.22 152.195H2757.11L2847.32 400.909C2850.66 411.35 2854.84 424.715 2859.85 441.004C2864.86 456.875 2870.92 477.549 2878.02 503.026C2883.45 482.978 2888.67 463.975 2893.68 446.016C2899.11 428.057 2903.91 413.021 2908.09 400.909L2997.68 152.195H3055.31L2908.09 545H2845.44Z" fill="#FF3B3D"/>
<path d="M3366.01 494.882V545H3105.39V152.195H3360.37V200.434H3158.64V320.719H3337.19V367.705H3158.64V494.882H3366.01Z" fill="#FF3B3D"/>
<path d="M270.763 211.53H105.879L23.4327 354.326L105.879 497.121H270.763L353.205 354.326L270.763 211.53Z" fill="#FF3B3D"/>
<path d="M265.236 521.102H111.42C105.531 521.093 99.7473 519.538 94.6473 516.593C89.5474 513.648 85.3096 509.416 82.3575 504.321L5.4568 371.117C2.52223 366.014 0.977404 360.231 0.976563 354.345C0.975722 348.459 2.5189 342.676 5.45201 337.572L82.3623 204.354C85.3139 199.259 89.551 195.028 94.6501 192.084C99.7493 189.14 105.532 187.586 111.42 187.577H265.236C271.125 187.586 276.908 189.141 282.008 192.086C287.108 195.031 291.346 199.263 294.298 204.359L371.204 337.563C374.138 342.666 375.683 348.45 375.684 354.337C375.685 360.223 374.142 366.008 371.209 371.112L294.293 504.325C291.342 509.42 287.105 513.651 282.006 516.595C276.906 519.539 271.124 521.093 265.236 521.102ZM119.722 473.168H256.934L325.542 354.34L256.934 235.511H119.722L51.1188 354.34L119.722 473.168Z" fill="#FF3B3D"/>
<path d="M350.448 349.532L273.537 216.323C272.696 214.866 271.486 213.655 270.029 212.814C268.571 211.972 266.918 211.53 265.235 211.53H111.419C107.992 211.53 104.828 213.356 103.117 216.323L26.2116 349.532C25.3707 350.99 24.928 352.643 24.928 354.326C24.928 356.008 25.3707 357.662 26.2116 359.119L103.117 492.328C103.959 493.785 105.169 494.996 106.626 495.837C108.083 496.678 109.737 497.121 111.419 497.121H265.235C268.662 497.121 271.826 495.295 273.537 492.328L350.448 359.119C351.289 357.662 351.731 356.008 351.731 354.326C351.731 352.643 351.289 350.99 350.448 349.532ZM256.933 473.154H119.721L51.1182 354.326L119.726 235.497H256.938L325.546 354.326L256.933 473.154Z" fill="#FF3B3D"/>
<path d="M600.338 24.584H435.454L353.012 167.38L435.454 310.176H600.338L682.779 167.38L600.338 24.584Z" fill="#FF3B3D"/>
<path d="M594.787 334.156H440.976C435.086 334.147 429.303 332.592 424.203 329.647C419.103 326.702 414.865 322.47 411.913 317.375L335.008 184.171C332.073 179.068 330.528 173.285 330.527 167.399C330.527 161.513 332.07 155.73 335.003 150.626L411.918 17.4078C414.869 12.313 419.107 8.08205 424.206 5.13796C429.305 2.19387 435.088 0.639724 440.976 0.630859H594.791C600.681 0.640338 606.464 2.19523 611.564 5.14013C616.664 8.08504 620.902 12.3168 623.854 17.4126L700.755 150.617C703.689 155.719 705.234 161.502 705.235 167.388C705.236 173.274 703.692 179.058 700.759 184.161L623.844 317.379C620.893 322.474 616.656 326.705 611.556 329.649C606.457 332.593 600.675 334.148 594.787 334.156ZM449.273 286.222H586.484L655.092 167.394L586.484 48.565H449.273L380.67 167.394L449.273 286.222Z" fill="#FF3B3D"/>
<path d="M679.999 162.586L603.093 29.3774C602.252 27.9201 601.041 26.7099 599.584 25.8685C598.127 25.0271 596.474 24.5841 594.791 24.584H440.975C439.292 24.5841 437.639 25.0271 436.182 25.8685C434.724 26.7099 433.514 27.9201 432.673 29.3774L355.762 162.586C354.922 164.044 354.479 165.697 354.479 167.38C354.479 169.063 354.922 170.716 355.762 172.173L432.673 305.382C433.514 306.839 434.724 308.05 436.182 308.891C437.639 309.733 439.292 310.175 440.975 310.176H594.791C598.218 310.176 601.382 308.349 603.093 305.382L679.999 172.173C680.839 170.716 681.282 169.063 681.282 167.38C681.282 165.697 680.839 164.044 679.999 162.586ZM586.484 286.208H449.272L380.669 167.38L449.272 48.5511H586.484L655.092 167.38L586.484 286.208Z" fill="#FF3B3D"/>
<path d="M600.338 393.685H435.454L353.012 536.481L435.454 679.276H600.338L682.779 536.481L600.338 393.685Z" fill="#FF3B3D"/>
<path d="M594.786 703.257H440.975C435.086 703.248 429.303 701.693 424.203 698.748C419.103 695.803 414.865 691.571 411.913 686.475L335.008 553.271C332.073 548.168 330.528 542.384 330.527 536.497C330.527 530.611 332.07 524.826 335.003 519.722L411.918 386.509C414.869 381.414 419.107 377.183 424.206 374.239C429.305 371.295 435.087 369.74 440.975 369.732H594.791C600.68 369.741 606.464 371.296 611.564 374.241C616.664 377.186 620.902 381.418 623.854 386.513L700.754 519.717C703.689 524.821 705.234 530.604 705.235 536.491C705.235 542.378 703.692 548.162 700.759 553.266L623.844 686.48C620.893 691.575 616.655 695.806 611.556 698.75C606.457 701.694 600.674 703.248 594.786 703.257ZM449.273 655.323H586.484L655.092 536.494L586.484 417.666H449.273L380.67 536.494L449.273 655.323Z" fill="#FF3B3D"/>
<path d="M679.999 531.687L603.093 398.478C602.252 397.021 601.041 395.811 599.584 394.969C598.127 394.128 596.474 393.685 594.791 393.685H440.975C439.292 393.685 437.639 394.128 436.182 394.969C434.724 395.811 433.514 397.021 432.673 398.478L355.762 531.687C354.922 533.145 354.479 534.798 354.479 536.481C354.479 538.163 354.922 539.816 355.762 541.274L432.673 674.483C433.514 675.94 434.724 677.15 436.182 677.992C437.639 678.833 439.292 679.276 440.975 679.276H594.791C598.218 679.276 601.382 677.45 603.093 674.483L679.999 541.274C680.839 539.816 681.282 538.163 681.282 536.481C681.282 534.798 680.839 533.145 679.999 531.687ZM586.484 655.309H449.272L380.669 536.481L449.272 417.652H586.484L655.092 536.481L586.484 655.309Z" fill="#FF3B3D"/>
</svg>
