<svg width="2817" height="817" viewBox="0 0 2817 817" fill="none" xmlns="http://www.w3.org/2000/svg">
<path d="M1336.83 503.189C1336.83 521.101 1333.41 537.906 1326.57 553.604C1319.72 569.302 1310.36 583.088 1298.49 594.962C1286.82 606.635 1273.13 615.893 1257.43 622.736C1241.74 629.579 1224.93 633 1207.02 633H990.566V200.094H1207.02C1224.93 200.094 1241.74 203.516 1257.43 210.358C1273.13 217.201 1286.82 226.56 1298.49 238.434C1310.36 250.107 1319.72 263.792 1326.57 279.491C1333.41 295.189 1336.83 311.994 1336.83 329.906C1336.83 337.956 1335.72 346.208 1333.51 354.66C1331.3 363.113 1328.18 371.264 1324.15 379.113C1320.13 386.962 1315.3 394.107 1309.66 400.547C1304.03 406.987 1297.79 412.321 1290.94 416.547C1297.99 420.371 1304.33 425.604 1309.96 432.245C1315.6 438.686 1320.43 445.83 1324.45 453.679C1328.48 461.528 1331.5 469.78 1333.51 478.434C1335.72 486.887 1336.83 495.138 1336.83 503.189ZM1077.21 546.358H1207.02C1213.06 546.358 1218.69 545.252 1223.92 543.038C1229.16 540.824 1233.69 537.805 1237.51 533.981C1241.53 529.956 1244.65 525.327 1246.87 520.094C1249.08 514.862 1250.19 509.226 1250.19 503.189C1250.19 497.151 1249.08 491.516 1246.87 486.283C1244.65 481.05 1241.53 476.522 1237.51 472.698C1233.69 468.673 1229.16 465.553 1223.92 463.34C1218.69 461.126 1213.06 460.019 1207.02 460.019H1077.21V546.358ZM1077.21 373.377H1207.02C1213.06 373.377 1218.69 372.27 1223.92 370.057C1229.16 367.843 1233.69 364.824 1237.51 361C1241.53 356.975 1244.65 352.346 1246.87 347.113C1249.08 341.679 1250.19 335.943 1250.19 329.906C1250.19 323.868 1249.08 318.233 1246.87 313C1244.65 307.767 1241.53 303.239 1237.51 299.415C1233.69 295.39 1229.16 292.27 1223.92 290.057C1218.69 287.843 1213.06 286.736 1207.02 286.736H1077.21V373.377Z" fill="black"/>
<path d="M1597.06 633H1510.72V497.453C1491.6 492.623 1473.99 484.874 1457.89 474.208C1441.99 463.541 1428.3 450.862 1416.83 436.17C1405.36 421.277 1396.4 404.874 1389.96 386.962C1383.72 368.849 1380.6 349.83 1380.6 329.906V200.094H1467.25V329.906C1467.25 341.78 1469.46 353.05 1473.89 363.717C1478.52 374.182 1484.75 383.34 1492.6 391.189C1500.45 399.038 1509.61 405.277 1520.08 409.906C1530.74 414.333 1542.01 416.547 1553.89 416.547C1565.76 416.547 1576.93 414.333 1587.4 409.906C1598.06 405.277 1607.32 399.038 1615.17 391.189C1623.02 383.34 1629.16 374.182 1633.58 363.717C1638.21 353.05 1640.53 341.78 1640.53 329.906V200.094H1726.87V329.906C1726.87 349.83 1723.65 368.849 1717.21 386.962C1710.97 404.874 1702.11 421.277 1690.64 436.17C1679.17 450.862 1665.48 463.541 1649.58 474.208C1633.69 484.874 1616.18 492.623 1597.06 497.453V633Z" fill="black"/>
<path d="M1967.47 633H1881.13V286.736H1751.02V200.094H2097.28V286.736H1967.47V633Z" fill="black"/>
<path d="M2439.92 633H2143.17V200.094H2439.92V286.736H2229.81V373.377H2372V460.019H2229.81V546.358H2439.92V633Z" fill="black"/>
<path d="M2470.42 329.906C2470.42 311.994 2473.84 295.189 2480.68 279.491C2487.52 263.792 2496.78 250.107 2508.45 238.434C2520.33 226.56 2534.11 217.201 2549.81 210.358C2565.51 203.516 2582.31 200.094 2600.23 200.094H2798.87V286.736H2600.23C2594.19 286.736 2588.55 287.843 2583.32 290.057C2578.09 292.27 2573.46 295.39 2569.43 299.415C2565.61 303.239 2562.59 307.767 2560.38 313C2558.16 318.233 2557.06 323.868 2557.06 329.906C2557.06 335.943 2558.16 341.679 2560.38 347.113C2562.59 352.346 2565.61 356.975 2569.43 361C2573.46 364.824 2578.09 367.843 2583.32 370.057C2588.55 372.27 2594.19 373.377 2600.23 373.377H2686.87C2704.78 373.377 2721.58 376.799 2737.28 383.642C2753.18 390.283 2766.97 399.541 2778.64 411.415C2790.52 423.088 2799.77 436.874 2806.42 452.774C2813.26 468.472 2816.68 485.277 2816.68 503.189C2816.68 521.101 2813.26 537.906 2806.42 553.604C2799.77 569.302 2790.52 583.088 2778.64 594.962C2766.97 606.635 2753.18 615.893 2737.28 622.736C2721.58 629.579 2704.78 633 2686.87 633H2494.57V546.358H2686.87C2692.91 546.358 2698.54 545.252 2703.77 543.038C2709.01 540.824 2713.53 537.805 2717.36 533.981C2721.38 529.956 2724.5 525.327 2726.72 520.094C2728.93 514.862 2730.04 509.226 2730.04 503.189C2730.04 497.151 2728.93 491.516 2726.72 486.283C2724.5 481.05 2721.38 476.522 2717.36 472.698C2713.53 468.673 2709.01 465.553 2703.77 463.34C2698.54 461.126 2692.91 460.019 2686.87 460.019H2600.23C2582.31 460.019 2565.51 456.597 2549.81 449.755C2534.11 442.912 2520.33 433.654 2508.45 421.981C2496.78 410.107 2487.52 396.321 2480.68 380.623C2473.84 364.723 2470.42 347.818 2470.42 329.906Z" fill="black"/>
<path d="M339.673 0C302.355 0 271.739 30.6166 271.739 67.9347C271.739 105.253 302.355 135.869 339.673 135.869C376.991 135.869 407.608 105.253 407.608 67.9347C407.608 30.6166 376.991 0 339.673 0ZM517.902 153.152C475.928 153.152 441.575 187.583 441.575 229.578C441.575 271.573 475.928 306.005 517.902 306.005C559.876 306.005 594.262 271.573 594.262 229.578C594.262 187.583 559.876 153.152 517.902 153.152ZM339.74 161.643C302.447 161.643 271.871 192.272 271.871 229.578C271.871 266.884 302.447 297.513 339.74 297.513C377.033 297.513 407.608 266.884 407.608 229.578C407.608 192.272 377.032 161.643 339.74 161.643ZM186.82 187.119C158.882 187.119 135.869 210.132 135.869 238.07C135.869 266.008 158.882 289.021 186.82 289.021C214.759 289.021 237.771 266.008 237.771 238.07C237.771 210.132 214.759 187.119 186.82 187.119ZM713.181 323.021C666.535 323.021 628.396 361.232 628.396 407.906C628.396 454.581 666.535 492.792 713.181 492.792C759.827 492.792 798 454.581 798 407.906C798 361.232 759.827 323.021 713.181 323.021ZM517.902 331.48C475.928 331.48 441.575 365.912 441.575 407.906C441.575 449.901 475.928 484.333 517.902 484.333C559.876 484.333 594.262 449.901 594.262 407.906C594.262 365.912 559.876 331.48 517.902 331.48ZM339.773 339.972C302.48 339.972 271.905 370.601 271.905 407.906C271.905 445.212 302.48 475.841 339.773 475.841C377.066 475.841 407.641 445.212 407.641 407.906C407.641 370.601 377.066 339.972 339.773 339.972ZM50.951 356.956C23.0127 356.956 0 379.968 0 407.906C0 435.845 23.0127 458.857 50.951 458.857C78.8893 458.857 101.902 435.845 101.902 407.906C101.902 379.968 78.8893 356.956 50.951 356.956ZM186.82 356.956C158.882 356.956 135.869 379.968 135.869 407.906C135.869 435.845 158.882 458.857 186.82 458.857C214.759 458.857 237.771 435.845 237.771 407.906C237.771 379.968 214.759 356.956 186.82 356.956ZM517.902 509.808C475.928 509.808 441.575 544.24 441.575 586.235C441.575 628.23 475.928 662.661 517.902 662.661C559.876 662.661 594.262 628.23 594.262 586.235C594.262 544.24 559.876 509.808 517.902 509.808ZM339.74 518.3C302.447 518.3 271.871 548.929 271.871 586.235C271.871 623.541 302.447 654.17 339.74 654.17C377.033 654.17 407.608 623.541 407.608 586.235C407.608 548.929 377.032 518.3 339.74 518.3ZM186.887 526.792C158.963 526.792 135.969 549.819 135.969 577.743C135.969 605.668 158.963 628.694 186.887 628.694C214.811 628.694 237.771 605.668 237.771 577.743C237.771 549.819 214.811 526.792 186.887 526.792ZM339.74 679.645C302.348 679.645 271.739 710.437 271.739 747.878C271.739 785.32 302.348 816.112 339.74 816.112C377.132 816.112 407.707 785.32 407.707 747.878C407.707 710.437 377.132 679.645 339.74 679.645Z" fill="black"/>
</svg>
