<svg width="4191" height="714" viewBox="0 0 4191 714" fill="none" xmlns="http://www.w3.org/2000/svg">
<path d="M0 0H4190.99V713.36H0V0Z" fill="#00A3FF" fill-opacity="0.85"/>
<path d="M405.487 237.576H338.24V179.101H537.057V237.576H469.81V588.429H405.487V237.576Z" fill="white"/>
<path d="M661.76 594.277C630.573 594.277 606.793 585.506 590.42 567.963C574.047 550.03 565.86 524.496 565.86 491.36V179.101H630.183V496.038C630.183 510.072 632.912 520.208 638.37 526.445C644.218 532.683 652.404 535.801 662.93 535.801C673.455 535.801 681.447 532.683 686.905 526.445C692.752 520.208 695.676 510.072 695.676 496.038V179.101H757.66V491.36C757.66 524.496 749.474 550.03 733.1 567.963C716.727 585.506 692.947 594.277 661.76 594.277Z" fill="white"/>
<path d="M803.472 179.101H898.787C931.923 179.101 956.093 186.897 971.297 202.491C986.501 217.694 994.102 241.28 994.102 273.246V298.391C994.102 340.883 980.068 367.782 952 379.087V380.256C967.593 384.935 978.509 394.486 984.746 408.909C991.374 423.333 994.687 442.63 994.687 466.8V538.725C994.687 550.42 995.077 559.971 995.857 567.378C996.636 574.395 998.585 581.412 1001.7 588.429H936.212C933.873 581.802 932.313 575.565 931.534 569.717C930.754 563.87 930.364 553.344 930.364 538.14V463.292C930.364 444.58 927.245 431.52 921.008 424.113C915.16 416.706 904.83 413.003 890.016 413.003H867.795V588.429H803.472V179.101ZM891.185 354.527C904.05 354.527 913.601 351.214 919.838 344.586C926.466 337.959 929.779 326.849 929.779 311.255V279.679C929.779 264.865 927.05 254.144 921.593 247.517C916.525 240.89 908.338 237.576 897.033 237.576H867.795V354.527H891.185Z" fill="white"/>
<path d="M1039.32 179.101H1103.64V588.429H1039.32V179.101Z" fill="white"/>
<path d="M1235.43 594.277C1204.25 594.277 1180.66 585.506 1164.68 567.963C1148.69 550.03 1140.7 524.496 1140.7 491.36V467.97H1201.52V496.038C1201.52 522.547 1212.63 535.801 1234.85 535.801C1245.76 535.801 1253.95 532.683 1259.41 526.445C1265.26 519.818 1268.18 509.293 1268.18 494.869C1268.18 477.716 1264.28 462.707 1256.48 449.842C1248.69 436.588 1234.26 420.8 1213.21 402.477C1186.7 379.087 1168.19 358.036 1157.66 339.324C1147.13 320.222 1141.87 298.781 1141.87 275C1141.87 242.644 1150.06 217.694 1166.43 200.152C1182.8 182.219 1206.58 173.253 1237.77 173.253C1268.57 173.253 1291.76 182.219 1307.36 200.152C1323.34 217.694 1331.33 243.034 1331.33 276.17V293.128H1270.52V272.077C1270.52 258.043 1267.79 247.907 1262.33 241.669C1256.87 235.042 1248.88 231.729 1238.36 231.729C1216.92 231.729 1206.19 244.788 1206.19 270.907C1206.19 285.721 1210.09 299.56 1217.89 312.425C1226.08 325.289 1240.7 340.883 1261.75 359.205C1288.65 382.595 1307.16 403.842 1317.3 422.944C1327.43 442.046 1332.5 464.461 1332.5 490.19C1332.5 523.716 1324.12 549.446 1307.36 567.378C1290.98 585.311 1267.01 594.277 1235.43 594.277Z" fill="white"/>
<path d="M1369.38 179.101H1461.19L1502.12 472.063H1503.29L1544.22 179.101H1636.03V588.429H1575.22V278.509H1574.05L1527.27 588.429H1473.47L1426.69 278.509H1425.52V588.429H1369.38V179.101Z" fill="white"/>
<path d="M1777.01 594.277C1745.43 594.277 1721.26 585.311 1704.5 567.378C1687.73 549.446 1679.35 524.106 1679.35 491.36V276.17C1679.35 243.424 1687.73 218.084 1704.5 200.152C1721.26 182.219 1745.43 173.253 1777.01 173.253C1808.58 173.253 1832.75 182.219 1849.52 200.152C1866.28 218.084 1874.66 243.424 1874.66 276.17V491.36C1874.66 524.106 1866.28 549.446 1849.52 567.378C1832.75 585.311 1808.58 594.277 1777.01 594.277ZM1777.01 535.801C1799.23 535.801 1810.34 522.352 1810.34 495.453V272.077C1810.34 245.178 1799.23 231.729 1777.01 231.729C1754.79 231.729 1743.68 245.178 1743.68 272.077V495.453C1743.68 522.352 1754.79 535.801 1777.01 535.801Z" fill="white"/>
<path d="M2061.52 179.101H2148.65L2215.31 588.429H2150.99L2139.29 507.148V508.318H2066.2L2054.5 588.429H1994.86L2061.52 179.101ZM2131.69 452.766L2103.04 250.441H2101.87L2073.8 452.766H2131.69Z" fill="white"/>
<path d="M2213 179.101H2277.91L2320.01 496.623H2321.18L2363.28 179.101H2422.34L2360.36 588.429H2274.98L2213 179.101Z" fill="white"/>
<path d="M2453.24 179.101H2628.66V237.576H2517.56V345.756H2605.86V404.231H2517.56V529.954H2628.66V588.429H2453.24V179.101Z" fill="white"/>
<path d="M2665.67 179.101H2746.36L2808.93 424.113H2810.1V179.101H2867.41V588.429H2801.33L2724.14 289.619H2722.97V588.429H2665.67V179.101Z" fill="white"/>
<path d="M2965.5 237.576H2898.26V179.101H3097.07V237.576H3029.83V588.429H2965.5V237.576Z" fill="white"/>
<path d="M3221.78 594.277C3190.59 594.277 3166.81 585.506 3150.44 567.963C3134.07 550.03 3125.88 524.496 3125.88 491.36V179.101H3190.2V496.038C3190.2 510.072 3192.93 520.208 3198.39 526.445C3204.24 532.683 3212.42 535.801 3222.95 535.801C3233.47 535.801 3241.47 532.683 3246.92 526.445C3252.77 520.208 3255.69 510.072 3255.69 496.038V179.101H3317.68V491.36C3317.68 524.496 3309.49 550.03 3293.12 567.963C3276.75 585.506 3252.97 594.277 3221.78 594.277Z" fill="white"/>
<path d="M3363.49 179.101H3458.81C3491.94 179.101 3516.11 186.897 3531.32 202.491C3546.52 217.694 3554.12 241.28 3554.12 273.246V298.391C3554.12 340.883 3540.09 367.782 3512.02 379.087V380.256C3527.61 384.935 3538.53 394.486 3544.76 408.909C3551.39 423.333 3554.71 442.63 3554.71 466.8V538.725C3554.71 550.42 3555.1 559.971 3555.88 567.378C3556.65 574.395 3558.6 581.412 3561.72 588.429H3496.23C3493.89 581.802 3492.33 575.565 3491.55 569.717C3490.77 563.87 3490.38 553.344 3490.38 538.14V463.292C3490.38 444.58 3487.26 431.52 3481.03 424.113C3475.18 416.706 3464.85 413.003 3450.03 413.003H3427.81V588.429H3363.49V179.101ZM3451.2 354.527C3464.07 354.527 3473.62 351.214 3479.86 344.586C3486.48 337.959 3489.8 326.849 3489.8 311.255V279.679C3489.8 264.865 3487.07 254.144 3481.61 247.517C3476.54 240.89 3468.36 237.576 3457.05 237.576H3427.81V354.527H3451.2Z" fill="white"/>
<path d="M3649.04 179.101H3736.17L3802.83 588.429H3738.51L3726.81 507.148V508.318H3653.72L3642.02 588.429H3582.38L3649.04 179.101ZM3719.21 452.766L3690.56 250.441H3689.39L3661.32 452.766H3719.21Z" fill="white"/>
</svg>
